<svg viewBox="0 0 1024 1024" version="1.1" xmlns="http://www.w3.org/2000/svg" fill="#333"
     width="24" height="24">
    <path d="M512 352c-89.6 0-160 70.4-160 160s70.4 160 160 160 160-70.4 160-160S601.6 352 512 352zM512 608c-54.4 0-96-41.6-96-96s41.6-96 96-96 96 41.6 96 96S566.4 608 512 608z"
          ></path>
    <path d="M956.8 496C873.6 358.4 726.4 192 512 192S153.6 358.4 67.2 496c-6.4 9.6-6.4 22.4 0 32C153.6 665.6 297.6 832 512 832c185.6 0 374.4-128 448-307.2C963.2 515.2 963.2 505.6 956.8 496zM512 768c-176 0-300.8-134.4-377.6-256 76.8-121.6 201.6-256 377.6-256 179.2 0 304 137.6 380.8 259.2C825.6 659.2 665.6 768 512 768z"
          ></path>
</svg>