<svg xmlns="http://www.w3.org/2000/svg" xmlns:xlink="http://www.w3.org/1999/xlink" width="360" height="300" viewBox="0 0 360 300" fill="none"><rect x="0" y="0" width="0" height="0" fill="rgba(249, 249, 249, 1)" /><defs><rect id="path_0" x="0" y="0" width="360" height="300" /><filter id="filter_2" x="94" y="217" width="128" height="38" filterUnits="userSpaceOnUse" color-interpolation-filters="sRGB"><feFlood flood-opacity="0" result="BackgroundImageFix"/>
          <feColorMatrix in="SourceAlpha" type="matrix" values="0 0 0 0 0 0 0 0 0 0 0 0 0 0 0 0 0 0 127 0"/>
          <feOffset dx="0" dy="2"/>
          <feGaussianBlur stdDeviation="2"/>
          <feColorMatrix type="matrix" values="0 0 0 0 0 0 0 0 0 0 0 0 0 0 0 0 0 0 0.5 0"/>
          <feBlend mode="normal" in2="BackgroundImageFix" result="effect1_Shadow"/>
          <feBlend mode="normal" in="SourceGraphic" in2="effect1_Shadow" result="shape"/></filter><filter id="filter_4" x="138" y="37" width="128" height="38" filterUnits="userSpaceOnUse" color-interpolation-filters="sRGB"><feFlood flood-opacity="0" result="BackgroundImageFix"/>
          <feColorMatrix in="SourceAlpha" type="matrix" values="0 0 0 0 0 0 0 0 0 0 0 0 0 0 0 0 0 0 127 0"/>
          <feOffset dx="0" dy="2"/>
          <feGaussianBlur stdDeviation="2"/>
          <feColorMatrix type="matrix" values="0 0 0 0 0 0 0 0 0 0 0 0 0 0 0 0 0 0 0.5 0"/>
          <feBlend mode="normal" in2="BackgroundImageFix" result="effect1_Shadow"/>
          <feBlend mode="normal" in="SourceGraphic" in2="effect1_Shadow" result="shape"/></filter><filter id="filter_6" x="206" y="127" width="128" height="38" filterUnits="userSpaceOnUse" color-interpolation-filters="sRGB"><feFlood flood-opacity="0" result="BackgroundImageFix"/>
          <feColorMatrix in="SourceAlpha" type="matrix" values="0 0 0 0 0 0 0 0 0 0 0 0 0 0 0 0 0 0 127 0"/>
          <feOffset dx="0" dy="2"/>
          <feGaussianBlur stdDeviation="2"/>
          <feColorMatrix type="matrix" values="0 0 0 0 0 0 0 0 0 0 0 0 0 0 0 0 0 0 0.5 0"/>
          <feBlend mode="normal" in2="BackgroundImageFix" result="effect1_Shadow"/>
          <feBlend mode="normal" in="SourceGraphic" in2="effect1_Shadow" result="shape"/></filter><filter id="filter_8" x="26" y="127" width="128" height="38" filterUnits="userSpaceOnUse" color-interpolation-filters="sRGB"><feFlood flood-opacity="0" result="BackgroundImageFix"/>
          <feColorMatrix in="SourceAlpha" type="matrix" values="0 0 0 0 0 0 0 0 0 0 0 0 0 0 0 0 0 0 127 0"/>
          <feOffset dx="0" dy="2"/>
          <feGaussianBlur stdDeviation="2"/>
          <feColorMatrix type="matrix" values="0 0 0 0 0 0 0 0 0 0 0 0 0 0 0 0 0 0 0.5 0"/>
          <feBlend mode="normal" in2="BackgroundImageFix" result="effect1_Shadow"/>
          <feBlend mode="normal" in="SourceGraphic" in2="effect1_Shadow" result="shape"/></filter><filter id="filter_10" x="198" y="77" width="76" height="48" filterUnits="userSpaceOnUse" color-interpolation-filters="sRGB"><feFlood flood-opacity="0" result="BackgroundImageFix"/>
          <feColorMatrix in="SourceAlpha" type="matrix" values="0 0 0 0 0 0 0 0 0 0 0 0 0 0 0 0 0 0 127 0"/>
          <feOffset dx="0" dy="2"/>
          <feGaussianBlur stdDeviation="2"/>
          <feColorMatrix type="matrix" values="0 0 0 0 0 0 0 0 0 0 0 0 0 0 0 0 0 0 0.5 0"/>
          <feBlend mode="normal" in2="BackgroundImageFix" result="effect1_Shadow"/>
          <feBlend mode="normal" in="SourceGraphic" in2="effect1_Shadow" result="shape"/></filter><filter id="filter_12" x="86" y="77" width="120" height="48" filterUnits="userSpaceOnUse" color-interpolation-filters="sRGB"><feFlood flood-opacity="0" result="BackgroundImageFix"/>
          <feColorMatrix in="SourceAlpha" type="matrix" values="0 0 0 0 0 0 0 0 0 0 0 0 0 0 0 0 0 0 127 0"/>
          <feOffset dx="0" dy="2"/>
          <feGaussianBlur stdDeviation="2"/>
          <feColorMatrix type="matrix" values="0 0 0 0 0 0 0 0 0 0 0 0 0 0 0 0 0 0 0.5 0"/>
          <feBlend mode="normal" in2="BackgroundImageFix" result="effect1_Shadow"/>
          <feBlend mode="normal" in="SourceGraphic" in2="effect1_Shadow" result="shape"/></filter><filter id="filter_14" x="86" y="168" width="76" height="47" filterUnits="userSpaceOnUse" color-interpolation-filters="sRGB"><feFlood flood-opacity="0" result="BackgroundImageFix"/>
          <feColorMatrix in="SourceAlpha" type="matrix" values="0 0 0 0 0 0 0 0 0 0 0 0 0 0 0 0 0 0 127 0"/>
          <feOffset dx="0" dy="2"/>
          <feGaussianBlur stdDeviation="2"/>
          <feColorMatrix type="matrix" values="0 0 0 0 0 0 0 0 0 0 0 0 0 0 0 0 0 0 0.5 0"/>
          <feBlend mode="normal" in2="BackgroundImageFix" result="effect1_Shadow"/>
          <feBlend mode="normal" in="SourceGraphic" in2="effect1_Shadow" result="shape"/></filter><filter id="filter_16" x="154" y="167" width="121" height="48" filterUnits="userSpaceOnUse" color-interpolation-filters="sRGB"><feFlood flood-opacity="0" result="BackgroundImageFix"/>
          <feColorMatrix in="SourceAlpha" type="matrix" values="0 0 0 0 0 0 0 0 0 0 0 0 0 0 0 0 0 0 127 0"/>
          <feOffset dx="0" dy="2"/>
          <feGaussianBlur stdDeviation="2"/>
          <feColorMatrix type="matrix" values="0 0 0 0 0 0 0 0 0 0 0 0 0 0 0 0 0 0 0.5 0"/>
          <feBlend mode="normal" in2="BackgroundImageFix" result="effect1_Shadow"/>
          <feBlend mode="normal" in="SourceGraphic" in2="effect1_Shadow" result="shape"/></filter><filter id="filter_18" x="154" y="78" width="53" height="136" filterUnits="userSpaceOnUse" color-interpolation-filters="sRGB"><feFlood flood-opacity="0" result="BackgroundImageFix"/>
          <feColorMatrix in="SourceAlpha" type="matrix" values="0 0 0 0 0 0 0 0 0 0 0 0 0 0 0 0 0 0 127 0"/>
          <feOffset dx="0" dy="2"/>
          <feGaussianBlur stdDeviation="2"/>
          <feColorMatrix type="matrix" values="0 0 0 0 0 0 0 0 0 0 0 0 0 0 0 0 0 0 0.5 0"/>
          <feBlend mode="normal" in2="BackgroundImageFix" result="effect1_Shadow"/>
          <feBlend mode="normal" in="SourceGraphic" in2="effect1_Shadow" result="shape"/></filter><filter id="filter_20" x="193" y="72" width="18" height="18" filterUnits="userSpaceOnUse" color-interpolation-filters="sRGB"><feFlood flood-opacity="0" result="BackgroundImageFix"/>
          <feColorMatrix in="SourceAlpha" type="matrix" values="0 0 0 0 0 0 0 0 0 0 0 0 0 0 0 0 0 0 127 0"/>
          <feOffset dx="0" dy="2"/>
          <feGaussianBlur stdDeviation="2"/>
          <feColorMatrix type="matrix" values="0 0 0 0 0 0 0 0 0 0 0 0 0 0 0 0 0 0 0.5 0"/>
          <feBlend mode="normal" in2="BackgroundImageFix" result="effect1_Shadow"/>
          <feBlend mode="normal" in="SourceGraphic" in2="effect1_Shadow" result="shape"/></filter><filter id="filter_22" x="261" y="112" width="18" height="18" filterUnits="userSpaceOnUse" color-interpolation-filters="sRGB"><feFlood flood-opacity="0" result="BackgroundImageFix"/>
          <feColorMatrix in="SourceAlpha" type="matrix" values="0 0 0 0 0 0 0 0 0 0 0 0 0 0 0 0 0 0 127 0"/>
          <feOffset dx="0" dy="2"/>
          <feGaussianBlur stdDeviation="2"/>
          <feColorMatrix type="matrix" values="0 0 0 0 0 0 0 0 0 0 0 0 0 0 0 0 0 0 0.5 0"/>
          <feBlend mode="normal" in2="BackgroundImageFix" result="effect1_Shadow"/>
          <feBlend mode="normal" in="SourceGraphic" in2="effect1_Shadow" result="shape"/></filter><filter id="filter_24" x="261" y="162" width="18" height="18" filterUnits="userSpaceOnUse" color-interpolation-filters="sRGB"><feFlood flood-opacity="0" result="BackgroundImageFix"/>
          <feColorMatrix in="SourceAlpha" type="matrix" values="0 0 0 0 0 0 0 0 0 0 0 0 0 0 0 0 0 0 127 0"/>
          <feOffset dx="0" dy="2"/>
          <feGaussianBlur stdDeviation="2"/>
          <feColorMatrix type="matrix" values="0 0 0 0 0 0 0 0 0 0 0 0 0 0 0 0 0 0 0.5 0"/>
          <feBlend mode="normal" in2="BackgroundImageFix" result="effect1_Shadow"/>
          <feBlend mode="normal" in="SourceGraphic" in2="effect1_Shadow" result="shape"/></filter><filter id="filter_26" x="81" y="112" width="18" height="18" filterUnits="userSpaceOnUse" color-interpolation-filters="sRGB"><feFlood flood-opacity="0" result="BackgroundImageFix"/>
          <feColorMatrix in="SourceAlpha" type="matrix" values="0 0 0 0 0 0 0 0 0 0 0 0 0 0 0 0 0 0 127 0"/>
          <feOffset dx="0" dy="2"/>
          <feGaussianBlur stdDeviation="2"/>
          <feColorMatrix type="matrix" values="0 0 0 0 0 0 0 0 0 0 0 0 0 0 0 0 0 0 0.5 0"/>
          <feBlend mode="normal" in2="BackgroundImageFix" result="effect1_Shadow"/>
          <feBlend mode="normal" in="SourceGraphic" in2="effect1_Shadow" result="shape"/></filter><filter id="filter_28" x="81" y="162" width="18" height="18" filterUnits="userSpaceOnUse" color-interpolation-filters="sRGB"><feFlood flood-opacity="0" result="BackgroundImageFix"/>
          <feColorMatrix in="SourceAlpha" type="matrix" values="0 0 0 0 0 0 0 0 0 0 0 0 0 0 0 0 0 0 127 0"/>
          <feOffset dx="0" dy="2"/>
          <feGaussianBlur stdDeviation="2"/>
          <feColorMatrix type="matrix" values="0 0 0 0 0 0 0 0 0 0 0 0 0 0 0 0 0 0 0.5 0"/>
          <feBlend mode="normal" in2="BackgroundImageFix" result="effect1_Shadow"/>
          <feBlend mode="normal" in="SourceGraphic" in2="effect1_Shadow" result="shape"/></filter><filter id="filter_30" x="149" y="202" width="18" height="18" filterUnits="userSpaceOnUse" color-interpolation-filters="sRGB"><feFlood flood-opacity="0" result="BackgroundImageFix"/>
          <feColorMatrix in="SourceAlpha" type="matrix" values="0 0 0 0 0 0 0 0 0 0 0 0 0 0 0 0 0 0 127 0"/>
          <feOffset dx="0" dy="2"/>
          <feGaussianBlur stdDeviation="2"/>
          <feColorMatrix type="matrix" values="0 0 0 0 0 0 0 0 0 0 0 0 0 0 0 0 0 0 0.5 0"/>
          <feBlend mode="normal" in2="BackgroundImageFix" result="effect1_Shadow"/>
          <feBlend mode="normal" in="SourceGraphic" in2="effect1_Shadow" result="shape"/></filter></defs><g opacity="1" transform="translate(0 0)  rotate(0 180 150)"><rect fill="#FFFFFF" opacity="0" transform="translate(0 0)  rotate(0 180 150)" x="0" y="0" width="360" height="300" rx="0" /><mask id="bg-mask-0" fill="white"><use xlink:href="#path_0"></use></mask><g mask="url(#bg-mask-0)" ><g id="矩形 1" filter="url(#filter_2)"><path id="矩形 1" fill-rule="evenodd" style="fill:#F7A49F" transform="translate(98 221)  rotate(0 60 15)" opacity="1" d="M15,30L105,30C108.98,30 112.79,28.42 115.61,25.61C118.42,22.79 120,18.98 120,15L120,15C120,11.02 118.42,7.21 115.61,4.39C112.79,1.58 108.98,0 105,0L15,0C11.02,0 7.21,1.58 4.39,4.39C1.58,7.21 0,11.02 0,15L0,15C0,18.98 1.58,22.79 4.39,25.61C7.21,28.42 11.02,30 15,30Z " /></g><g id="矩形 1" filter="url(#filter_4)"><path id="矩形 1" fill-rule="evenodd" style="fill:#B2DFF6" transform="translate(142 41)  rotate(0 60 15)" opacity="1" d="M15,30L105,30C108.98,30 112.79,28.42 115.61,25.61C118.42,22.79 120,18.98 120,15L120,15C120,11.02 118.42,7.21 115.61,4.39C112.79,1.58 108.98,0 105,0L15,0C11.02,0 7.21,1.58 4.39,4.39C1.58,7.21 0,11.02 0,15L0,15C0,18.98 1.58,22.79 4.39,25.61C7.21,28.42 11.02,30 15,30Z " /></g><g id="矩形 1" filter="url(#filter_6)"><path id="矩形 1" fill-rule="evenodd" style="fill:#BCDDA1" transform="translate(210 131)  rotate(0 60 15)" opacity="1" d="M15,30L105,30C108.98,30 112.79,28.42 115.61,25.61C118.42,22.79 120,18.98 120,15L120,15C120,11.02 118.42,7.21 115.61,4.39C112.79,1.58 108.98,0 105,0L15,0C11.02,0 7.21,1.58 4.39,4.39C1.58,7.21 0,11.02 0,15L0,15C0,18.98 1.58,22.79 4.39,25.61C7.21,28.42 11.02,30 15,30Z " /></g><g id="矩形 1" filter="url(#filter_8)"><path id="矩形 1" fill-rule="evenodd" style="fill:#F8EAA3" transform="translate(30 131)  rotate(0 60 15)" opacity="1" d="M15,30L105,30C108.98,30 112.79,28.42 115.61,25.61C118.42,22.79 120,18.98 120,15L120,15C120,11.02 118.42,7.21 115.61,4.39C112.79,1.58 108.98,0 105,0L15,0C11.02,0 7.21,1.58 4.39,4.39C1.58,7.21 0,11.02 0,15L0,15C0,18.98 1.58,22.79 4.39,25.61C7.21,28.42 11.02,30 15,30Z " /></g><g id="直线 1" filter="url(#filter_10)"><path  id="直线 1" style="stroke:#A6A6A6; stroke-width:1; stroke-opacity:1; stroke-dasharray:0 0" transform="translate(202 81)  rotate(0 34 20)" d="M0,0L68,40 " /></g><g id="直线 2" filter="url(#filter_12)"><path  id="直线 2" style="stroke:#A6A6A6; stroke-width:1; stroke-opacity:1; stroke-dasharray:0 0" transform="translate(90 81)  rotate(0 56 20)" d="M112,0L0,40 " /></g><g id="直线 3" filter="url(#filter_14)"><path  id="直线 3" style="stroke:#A6A6A6; stroke-width:1; stroke-opacity:1; stroke-dasharray:0 0" transform="translate(90 172)  rotate(0 34 19.5)" d="M0,0L68,39 " /></g><g id="直线 4" filter="url(#filter_16)"><path  id="直线 4" style="stroke:#A6A6A6; stroke-width:1; stroke-opacity:1; stroke-dasharray:0 0" transform="translate(158 171)  rotate(0 56.5 20)" d="M113,0L0,40 " /></g><g id="直线 5" filter="url(#filter_18)"><path  id="直线 5" style="stroke:#A6A6A6; stroke-width:1; stroke-opacity:1; stroke-dasharray:0 0" transform="translate(158 82)  rotate(0 22.5 64)" d="M45,0L0,128 " /></g><g id="圆形 1" filter="url(#filter_20)"><path id="圆形 1" fill-rule="evenodd" style="fill:#C4C4C4" transform="translate(197 76)  rotate(0 5 5)" opacity="1" d="M5,0C2.24,0 0,2.24 0,5C0,7.76 2.24,10 5,10C7.76,10 10,7.76 10,5C10,2.24 7.76,0 5,0Z " /><path  id="圆形 1" style="stroke:#C4C4C4; stroke-width:2; stroke-opacity:1; stroke-dasharray:0 0" transform="translate(197 76)  rotate(0 5 5)" d="M5,0C2.24,0 0,2.24 0,5C0,7.76 2.24,10 5,10C7.76,10 10,7.76 10,5C10,2.24 7.76,0 5,0Z " /></g><g id="圆形 1" filter="url(#filter_22)"><path id="圆形 1" fill-rule="evenodd" style="fill:#C4C4C4" transform="translate(265 116)  rotate(0 5 5)" opacity="1" d="M5,0C2.24,0 0,2.24 0,5C0,7.76 2.24,10 5,10C7.76,10 10,7.76 10,5C10,2.24 7.76,0 5,0Z " /><path  id="圆形 1" style="stroke:#C4C4C4; stroke-width:2; stroke-opacity:1; stroke-dasharray:0 0" transform="translate(265 116)  rotate(0 5 5)" d="M5,0C2.24,0 0,2.24 0,5C0,7.76 2.24,10 5,10C7.76,10 10,7.76 10,5C10,2.24 7.76,0 5,0Z " /></g><g id="圆形 1" filter="url(#filter_24)"><path id="圆形 1" fill-rule="evenodd" style="fill:#C4C4C4" transform="translate(265 166)  rotate(0 5 5)" opacity="1" d="M5,0C2.24,0 0,2.24 0,5C0,7.76 2.24,10 5,10C7.76,10 10,7.76 10,5C10,2.24 7.76,0 5,0Z " /><path  id="圆形 1" style="stroke:#C4C4C4; stroke-width:2; stroke-opacity:1; stroke-dasharray:0 0" transform="translate(265 166)  rotate(0 5 5)" d="M5,0C2.24,0 0,2.24 0,5C0,7.76 2.24,10 5,10C7.76,10 10,7.76 10,5C10,2.24 7.76,0 5,0Z " /></g><g id="圆形 1" filter="url(#filter_26)"><path id="圆形 1" fill-rule="evenodd" style="fill:#C4C4C4" transform="translate(85 116)  rotate(0 5 5)" opacity="1" d="M5,0C2.24,0 0,2.24 0,5C0,7.76 2.24,10 5,10C7.76,10 10,7.76 10,5C10,2.24 7.76,0 5,0Z " /><path  id="圆形 1" style="stroke:#C4C4C4; stroke-width:2; stroke-opacity:1; stroke-dasharray:0 0" transform="translate(85 116)  rotate(0 5 5)" d="M5,0C2.24,0 0,2.24 0,5C0,7.76 2.24,10 5,10C7.76,10 10,7.76 10,5C10,2.24 7.76,0 5,0Z " /></g><g id="圆形 1" filter="url(#filter_28)"><path id="圆形 1" fill-rule="evenodd" style="fill:#C4C4C4" transform="translate(85 166)  rotate(0 5 5)" opacity="1" d="M5,0C2.24,0 0,2.24 0,5C0,7.76 2.24,10 5,10C7.76,10 10,7.76 10,5C10,2.24 7.76,0 5,0Z " /><path  id="圆形 1" style="stroke:#C4C4C4; stroke-width:2; stroke-opacity:1; stroke-dasharray:0 0" transform="translate(85 166)  rotate(0 5 5)" d="M5,0C2.24,0 0,2.24 0,5C0,7.76 2.24,10 5,10C7.76,10 10,7.76 10,5C10,2.24 7.76,0 5,0Z " /></g><g id="圆形 1" filter="url(#filter_30)"><path id="圆形 1" fill-rule="evenodd" style="fill:#C4C4C4" transform="translate(153 206)  rotate(0 5 5)" opacity="1" d="M5,0C2.24,0 0,2.24 0,5C0,7.76 2.24,10 5,10C7.76,10 10,7.76 10,5C10,2.24 7.76,0 5,0Z " /><path  id="圆形 1" style="stroke:#C4C4C4; stroke-width:2; stroke-opacity:1; stroke-dasharray:0 0" transform="translate(153 206)  rotate(0 5 5)" d="M5,0C2.24,0 0,2.24 0,5C0,7.76 2.24,10 5,10C7.76,10 10,7.76 10,5C10,2.24 7.76,0 5,0Z " /></g><g opacity="1" transform="translate(171 41)  rotate(0 31.5 13.5)"><text><tspan x="0" y="21" font-size="20" line-height="0" fill="#FFFFFF" opacity="1" font-family="Helvetica" letter-spacing="0" >source</tspan></text></g><g opacity="1" transform="translate(225 131)  rotate(0 46.5 13.5)"><text><tspan x="0" y="21" font-size="20" line-height="0" fill="#FFFFFF" opacity="1" font-family="Helvetica" letter-spacing="0" >processor</tspan></text></g><g opacity="1" transform="translate(139 221)  rotate(0 19 13.5)"><text><tspan x="0" y="21" font-size="20" line-height="0" fill="#FFFFFF" opacity="1" font-family="Helvetica" letter-spacing="0" >sink</tspan></text></g><g opacity="1" transform="translate(44 131)  rotate(0 46.5 13.5)"><text><tspan x="0" y="21" font-size="20" line-height="0" fill="#FFFFFF" opacity="1" font-family="Helvetica" letter-spacing="0" >processor</tspan></text></g></g></g></svg>
