<svg xmlns="http://www.w3.org/2000/svg" xmlns:xlink="http://www.w3.org/1999/xlink" width="480" height="360" viewBox="0 0 480 360" fill="none"><defs><rect id="path_0" x="0" y="0" width="480" height="360" /></defs><g opacity="1" transform="translate(0 0)  rotate(0 240 180)"><rect fill="#FFFFFF" opacity="0" transform="translate(0 0)  rotate(0 240 180)" x="0" y="0" width="480" height="360" rx="0" /><mask id="bg-mask-0" fill="white"><use xlink:href="#path_0"></use></mask><g mask="url(#bg-mask-0)" ><path id="圆形 1" fill-rule="evenodd" style="fill:#F4A571" transform="translate(59.88 81.6)  rotate(150 180 100)" opacity="1" d="M180,0C80.59,0 0,44.77 0,100C0,155.23 80.59,200 180,200C279.41,200 360,155.23 360,100C360,44.77 279.41,0 180,0Z " /><g opacity="1" transform="translate(147 132)  rotate(0 105.5 38)"><text><tspan x="0" y="60" font-size="56" line-height="0" fill="#FFFFFF" opacity="1" font-family="Times New Roman" font-weight="bold" font-style="italic" letter-spacing="0" >Machine</tspan></text></g><g opacity="1" transform="translate(142 184)  rotate(0 131 62.5)"><text><tspan x="0" y="98" font-size="92" line-height="0" fill="#000000" opacity="1" font-family="Times New Roman" font-weight="bold" font-style="italic" letter-spacing="0" >Vision</tspan></text></g></g></g></svg>
