<svg t="1678761869925" class="icon" viewBox="0 0 1024 1024" version="1.1" xmlns="http://www.w3.org/2000/svg" p-id="7862"
     width="200" height="200">
    <path d="M511.91101074 208.57134986c-18.60864234 0-34.47344994 6.59014916-47.64880347 19.77539086-13.1605227 13.1852417-19.74572778 29.04510522-19.74572778 47.68835474 0 18.63830542 6.58520508 34.50311303 19.74572778 47.58453321 13.17535424 13.18029761 29.04016113 19.77539086 47.64880347 19.77539086 18.64324951 0 34.50805641-6.59509253 47.6685791-19.77539086 13.17535424-13.08142089 19.73583961-28.94128442 19.73583961-47.58453321s-6.56048608-34.50805641-19.73583961-47.68835474c-13.1605227-13.1852417-29.0203855-19.77539086-47.6685791-19.77539086z m0-67.35992408c37.24694848 0 68.98150635 13.08142089 95.36682129 39.4519043 26.31115723 26.36059594 39.50134301 58.18908715 39.50134301 95.36682129 0 31.11163306-9.47241188 58.71313453-28.43701195 82.80944847-18.959656 24.10620141-43.21911621 39.96606422-72.69927955 47.48565651v407.14563012a299.36975074 299.36975074 0 0 0 106.03070068-32.44152856c33.2622068-17.51110816 61.87225318-39.4519043 85.84002662-66.02508521 23.97271752-26.46936011 42.93237281-57.3684082 56.88885474-92.69714356A297.98547387 297.98547387 0 0 0 815.34460425 512c0-9.37353516 3.27282691-17.30346656 9.89758325-23.89361573 6.56048608-6.59509253 14.51019311-9.88769508 23.81451392-9.88769506 9.3092649 0 17.27380347 3.29260253 23.82934618 9.88769507C879.50585914 494.69653344 882.78857422 502.62646484 882.78857422 512c0 50.36791992-9.78881836 98.46661377-29.36645508 144.19720483-19.54797364 45.73059106-45.88384986 85.07373047-78.99279785 118.23706055-33.09411645 33.06445336-72.51141357 59.42999268-118.25683618 79.0026853C610.46661377 872.99975586 562.39758301 882.78857422 512.00988746 882.78857422c-50.39758301 0-98.43695068-9.78881836-144.20214821-29.35656762-45.71081543-19.56774926-85.16271972-45.93328857-118.23211645-78.99774122-33.11883545-33.16333008-59.45471167-72.50646949-79.01257348-118.23706055C150.99530006 610.46661377 141.21142578 562.36297584 141.21142578 512c0-9.37353516 3.27777099-17.30346656 9.89758325-23.89361573 6.56048608-6.59509253 14.51513648-9.88769508 23.81451392-9.88769506 9.3092649 0 17.27380347 3.29260253 23.83428955 9.88769507 6.61486816 6.59014916 9.9074707 14.52008057 9.9074707 23.89361572 0 38.21594214 6.9708252 74.98333717 20.93225122 110.31207251 13.95648193 35.32379126 32.8963623 66.22283935 56.88885474 92.69714356 23.96777344 26.56823754 52.59265136 48.50903297 85.84002662 66.02014184a299.43402099 299.43402099 0 0 0 106.03070068 32.44152856V406.32525635c-29.49993896-7.5146482-53.72973609-23.38439917-72.68939209-47.48071313-18.96459937-24.10125732-28.4518435-51.70770288-28.45184279-82.80944776 0-37.18267823 13.20007325-69.01116943 39.51123047-95.37670947C443.08770728 154.29284668 474.87170386 141.21142578 512.06921363 141.21142578h-0.15820289z"
          p-id="7863"></path>
</svg>